<?xml version="1.0" standalone="no"?>
<!DOCTYPE svg PUBLIC "-//W3C//DTD SVG 20010904//EN"
 "http://www.w3.org/TR/2001/REC-SVG-20010904/DTD/svg10.dtd">
<svg version="1.0" xmlns="http://www.w3.org/2000/svg"
 width="400.000000pt" height="400.000000pt" viewBox="0 0 400.000000 400.000000"
 preserveAspectRatio="xMidYMid meet">
<metadata>
Created by potrace 1.14, written by Peter Selinger 2001-2017
</metadata>
<g transform="translate(0.000000,400.000000) scale(0.100000,-0.100000)"
fill="#000000" stroke="none">
<path d="M1898 2926 c-98 -35 -158 -117 -158 -217 0 -37 -2 -39 -69 -74 -168
-88 -294 -248 -336 -426 -11 -47 -15 -123 -15 -280 l0 -216 -42 -6 c-92 -12
-108 -115 -24 -147 18 -6 264 -10 719 -10 742 0 727 -1 756 51 28 50 -18 109
-84 109 l-25 0 0 218 c0 247 -9 299 -67 420 -52 108 -178 235 -280 283 l-72
34 -1 45 c-2 153 -161 266 -302 216z m124 -165 c9 -9 18 -24 20 -34 3 -17 -5
-19 -70 -19 -40 0 -76 2 -79 6 -9 9 26 56 50 66 27 10 56 4 79 -19z"/>
<path d="M1245 1468 c-61 -33 -60 -103 2 -136 30 -17 1411 -17 1447 -1 35 16
52 61 37 98 -7 15 -24 33 -37 40 -35 15 -1420 15 -1449 -1z"/>
</g>
</svg>
